<svg width="24" height="48" viewBox="0 0 24 48" fill="none" xmlns="http://www.w3.org/2000/svg">
<rect width="24" height="48" fill="none"/>
<g id="fluent:temperature-24-regular">
<g id="Group">
<path id="Vector" d="M12 0.666668C13.9366 0.666507 15.7999 1.40727 17.2078 2.73705C18.6157 4.06684 19.4614 5.88487 19.5717 7.81833L19.5833 8.25L19.5857 26.8047L19.7723 26.9657C21.9468 28.9043 23.3155 31.5876 23.6083 34.486L23.6527 35.074L23.6667 35.6667C23.667 37.5889 23.1924 39.4814 22.285 41.176C21.3776 42.8706 20.0655 44.3147 18.4655 45.38C16.8654 46.4453 15.0269 47.0987 13.1135 47.2821C11.2 47.4656 9.27088 47.1734 7.49756 46.4316C5.72424 45.6898 4.16169 44.5212 2.94884 43.0299C1.73598 41.5387 0.910397 39.7708 0.545485 37.8835C0.180573 35.9962 0.28764 34.048 0.857165 32.2121C1.42669 30.3762 2.44103 28.7094 3.81 27.36L4.23 26.9633L4.41433 26.8047L4.41667 8.25C4.41628 6.38638 5.10215 4.58787 6.34337 3.19774C7.58459 1.80761 9.29423 0.923207 11.146 0.713335L11.5707 0.678335L12 0.666668ZM12 4.16667C10.9749 4.16675 9.98724 4.55244 9.23335 5.24711C8.47945 5.94178 8.01443 6.89462 7.93066 7.91633L7.91667 8.25V28.536L7.19567 29.061C5.81814 30.063 4.78841 31.4707 4.25062 33.087C3.71282 34.7032 3.69389 36.4472 4.19647 38.0748C4.69904 39.7024 5.69797 41.1321 7.05342 42.1637C8.40887 43.1954 10.053 43.7774 11.7556 43.8283C13.4583 43.8792 15.1342 43.3964 16.5489 42.4475C17.9635 41.4986 19.046 40.1312 19.6449 38.5365C20.2438 36.9418 20.329 35.1998 19.8887 33.5543C19.4484 31.9088 18.5046 30.4421 17.1893 29.3597L16.8043 29.0633L16.088 28.5383L16.0833 8.25C16.0833 7.16703 15.6531 6.12842 14.8874 5.36265C14.1216 4.59688 13.083 4.16667 12 4.16667ZM12 14.6667C12.4641 14.6667 12.9092 14.851 13.2374 15.1792C13.5656 15.5074 13.75 15.9525 13.75 16.4167V30.1017C15.0801 30.5198 16.2166 31.4003 16.9537 32.5839C17.6907 33.7675 17.9796 35.1758 17.7681 36.554C17.5566 37.9322 16.8587 39.1891 15.8006 40.0971C14.7425 41.0052 13.3943 41.5044 12 41.5044C10.6057 41.5044 9.25747 41.0052 8.19941 40.0971C7.14134 39.1891 6.44338 37.9322 6.23187 36.554C6.02036 35.1758 6.30929 33.7675 7.04634 32.5839C7.7834 31.4003 8.91987 30.5198 10.25 30.1017V16.4167C10.25 15.9525 10.4344 15.5074 10.7626 15.1792C11.0908 14.851 11.5359 14.6667 12 14.6667Z" fill="black"/>
</g>
</g>
</svg>
