<svg width="32" height="32" viewBox="0 0 32 32" fill="none" xmlns="http://www.w3.org/2000/svg">
<g id="carbon:location-current">
<path id="Vector" d="M12.983 28C13.1857 28.0033 13.3846 27.9449 13.5534 27.8326C13.7222 27.7202 13.8528 27.5593 13.928 27.371L17.769 17.77L27.371 13.929C27.5567 13.8548 27.7159 13.7266 27.8281 13.561C27.9402 13.3954 28.0001 13.2 28 13L28 12.984C27.9968 12.7815 27.9322 12.5847 27.8147 12.4197C27.6972 12.2547 27.5324 12.1292 27.342 12.06L5.342 4.05999C5.16303 3.9945 4.96906 3.98152 4.78296 4.02257C4.59685 4.06362 4.42636 4.157 4.29154 4.29171C4.15673 4.42642 4.06322 4.59684 4.02202 4.78292C3.98082 4.96899 3.99365 5.16296 4.059 5.34199L12.059 27.342C12.1284 27.5324 12.254 27.6973 12.4192 27.8148C12.5844 27.9323 12.7813 27.9969 12.984 28L12.983 28Z" fill="black"/>
</g>
</svg>
